<?xml version="1.0" standalone="no"?>
<!DOCTYPE svg PUBLIC "-//W3C//DTD SVG 20010904//EN"
 "http://www.w3.org/TR/2001/REC-SVG-20010904/DTD/svg10.dtd">
<svg version="1.0" xmlns="http://www.w3.org/2000/svg"
 width="300.000000pt" height="150.000000pt" viewBox="0 0 300.000000 150.000000"
 preserveAspectRatio="xMidYMid meet">
<metadata>
Created by potrace 1.10, written by Peter Selinger 2001-2011
</metadata>
<g transform="translate(0.000000,150.000000) scale(0.100000,-0.100000)"
fill="#000000" stroke="none">
<path d="M1230 1383 c-95 -9 -241 -37 -303 -58 -69 -24 -127 -66 -127 -92 0
-8 22 -38 48 -66 61 -66 314 -357 310 -357 -2 0 -205 87 -453 194 l-450 194
-22 -26 c-52 -63 -78 -154 -95 -329 -21 -225 22 -500 88 -567 15 -14 32 -26
37 -26 12 0 757 272 826 302 24 10 46 17 48 15 2 -2 -13 -17 -34 -33 -121 -91
-305 -251 -317 -275 -18 -36 -2 -60 63 -93 116 -59 313 -88 601 -89 417 0 706
74 675 173 -3 11 -88 88 -188 171 -233 194 -222 183 -167 164 55 -20 854 -277
927 -298 50 -15 53 -15 79 5 64 51 99 206 99 448 0 194 -17 306 -60 396 -45
92 -8 101 -565 -141 -272 -119 -502 -218 -510 -221 -8 -3 -1 7 16 23 17 15
101 102 186 193 85 91 168 179 186 196 54 55 24 93 -109 138 -127 43 -332 66
-557 64 -108 0 -213 -3 -232 -5z m625 -58 c101 -17 171 -38 229 -67 l38 -19
-22 -24 c-47 -50 -218 -88 -475 -106 -134 -9 -190 -8 -335 6 -252 23 -391 57
-434 104 -18 20 -18 20 15 41 68 41 236 78 408 88 147 10 468 -3 576 -23z
m944 -250 c11 -34 25 -99 32 -145 15 -108 7 -372 -15 -465 -17 -71 -53 -148
-70 -149 -17 -1 -45 58 -68 140 -30 111 -33 428 -4 549 17 76 36 124 59 153
17 21 45 -14 66 -83z m-2490 5 c37 -85 54 -235 48 -410 -3 -85 -12 -186 -21
-223 -17 -76 -54 -157 -71 -157 -13 0 -47 65 -63 120 -50 166 -35 564 25 685
35 68 47 66 82 -15z m670 45 c96 -34 259 -49 516 -50 248 0 334 8 463 41 30 8
56 13 57 12 3 -3 -174 -194 -338 -366 -57 -60 -62 -63 -86 -52 -42 20 -199 24
-248 7 l-42 -14 -83 95 c-46 53 -131 152 -191 219 -59 68 -103 123 -98 123 4
0 27 -7 50 -15z m1681 -32 c-63 -167 -59 -565 6 -722 8 -19 13 -35 11 -37 -1
-2 -215 65 -474 148 l-471 151 -4 46 c-2 25 -1 47 2 49 13 7 936 410 942 411
3 0 -2 -20 -12 -46z m-1864 -169 c225 -96 410 -177 412 -179 1 -1 -3 -15 -10
-29 -9 -20 -9 -35 -1 -56 l11 -29 -117 -42 c-64 -23 -260 -95 -436 -160 -176
-65 -321 -116 -323 -114 -2 2 2 14 9 26 24 46 40 127 48 252 14 217 -5 403
-54 521 -8 17 -6 17 22 2 17 -8 215 -95 439 -192z m454 -239 c0 -13 -4 -27
-10 -30 -6 -4 -10 8 -10 30 0 22 4 34 10 30 6 -3 10 -17 10 -30z m445 -15 c0
-13 -6 -25 -12 -27 -16 -6 -27 21 -19 43 9 23 31 11 31 -16z m-121 11 c17 -6
17 -8 3 -14 -62 -23 -248 -12 -231 14 6 11 201 11 228 0z m-204 -51 c49 -13
165 -12 210 1 l38 12 163 -138 c89 -75 171 -142 181 -148 26 -17 22 -28 -6
-17 -51 19 -191 40 -340 50 -233 17 -489 -4 -686 -55 -22 -6 -21 -4 10 22 19
15 97 79 172 141 75 61 141 112 145 112 5 0 14 9 21 21 10 15 19 19 35 14 12
-3 38 -10 57 -15z m410 -290 c166 -25 310 -74 310 -107 0 -22 -101 -63 -203
-83 -261 -53 -608 -53 -864 0 -108 21 -203 61 -203 85 0 39 188 93 390 114
114 12 466 6 570 -9z"/>
</g>
</svg>
